<svg width="15" height="15" viewBox="0 0 15 15" fill="none" xmlns="http://www.w3.org/2000/svg">
<rect width="15" height="15" rx="2" fill="#6C4784"/>
<path d="M3 4.56885V3L8.02259 3L9 4.56885H6.76338V12H5.23662V4.56885H3Z" fill="white"/>
<path d="M5 12V3H8.50217C9.17255 3 9.74469 3.12158 10.2186 3.36475C10.6954 3.60498 11.058 3.94629 11.3065 4.38867C11.5579 4.82812 11.6836 5.34521 11.6836 5.93994C11.6836 6.5376 11.5565 7.05176 11.3022 7.48242C11.0479 7.91016 10.6795 8.23828 10.1969 8.4668C9.71723 8.69531 9.13643 8.80957 8.45449 8.80957H6.1096V7.28027H8.15108C8.50939 7.28027 8.80702 7.23047 9.04396 7.13086C9.28091 7.03125 9.45717 6.88184 9.57276 6.68262C9.69123 6.4834 9.75046 6.23584 9.75046 5.93994C9.75046 5.64111 9.69123 5.38916 9.57276 5.18408C9.45717 4.979 9.27946 4.82373 9.03963 4.71826C8.80268 4.60986 8.50361 4.55566 8.14242 4.55566H6.87678V12H5ZM9.79381 7.9043L12 12H9.92817L7.76966 7.9043H9.79381Z" fill="white"/>
</svg>
